<svg width="42" height="42" xmlns="http://www.w3.org/2000/svg" xmlns:xlink="http://www.w3.org/1999/xlink" overflow="hidden"><defs><clipPath id="clip0"><rect x="419" y="213" width="42" height="42"/></clipPath></defs><g clip-path="url(#clip0)" transform="translate(-419 -213)"><path d="M430.452 215.912C430.069 215.527 429.445 215.526 429.06 215.91 429.059 215.91 429.059 215.911 429.058 215.912L423.834 221.106 421.972 219.291C421.588 218.906 420.965 218.905 420.58 219.289 420.579 219.289 420.578 219.29 420.577 219.291L419.29 220.581C418.904 220.964 418.903 221.588 419.287 221.973 419.288 221.973 419.289 221.974 419.29 221.975L423.193 225.863C423.598 226.248 424.233 226.248 424.638 225.863L425.917 224.582 431.84 218.66C432.224 218.276 432.227 217.654 431.847 217.266ZM430.452 228.971C430.069 228.586 429.445 228.584 429.06 228.968 429.059 228.969 429.059 228.97 429.058 228.971L423.834 234.198 421.972 232.385C421.588 232 420.965 231.999 420.58 232.382 420.579 232.383 420.578 232.384 420.577 232.385L419.29 233.672C418.904 234.056 418.903 234.679 419.287 235.064 419.288 235.065 419.289 235.066 419.29 235.066L423.184 238.963C423.588 239.347 424.223 239.347 424.627 238.963L425.915 237.676 431.838 231.752C432.22 231.37 432.224 230.751 431.845 230.365ZM424.25 243.188C422.077 243.188 420.264 244.951 420.264 247.125 420.264 249.299 422.079 251.062 424.25 251.062 426.425 251.062 428.188 249.3 428.188 247.125 428.188 244.95 426.425 243.188 424.25 243.188ZM459.688 244.5 436.062 244.5C435.338 244.5 434.75 245.088 434.75 245.812L434.75 248.438C434.75 249.162 435.338 249.75 436.062 249.75L459.688 249.75C460.412 249.75 461 249.162 461 248.438L461 245.812C461 245.088 460.412 244.5 459.688 244.5ZM459.688 218.25 436.062 218.25C435.338 218.25 434.75 218.838 434.75 219.562L434.75 222.188C434.75 222.912 435.338 223.5 436.062 223.5L459.688 223.5C460.412 223.5 461 222.912 461 222.188L461 219.562C461 218.838 460.412 218.25 459.688 218.25ZM459.688 231.375 436.062 231.375C435.338 231.375 434.75 231.963 434.75 232.688L434.75 235.312C434.75 236.037 435.338 236.625 436.062 236.625L459.688 236.625C460.412 236.625 461 236.037 461 235.312L461 232.688C461 231.963 460.412 231.375 459.688 231.375Z"/></g></svg>