<svg width="58" height="58" xmlns="http://www.w3.org/2000/svg" xmlns:xlink="http://www.w3.org/1999/xlink" overflow="hidden"><defs><clipPath id="clip0"><rect x="235" y="204" width="58" height="58"/></clipPath></defs><g clip-path="url(#clip0)" transform="translate(-235 -204)"><path d="M254.303 242.164C259.786 242.164 264.227 237.724 264.227 232.241 264.227 226.758 259.786 222.318 254.303 222.318 248.82 222.318 244.38 226.77 244.38 232.241 244.38 237.712 248.82 242.164 254.303 242.164ZM261.247 244.645 259.956 244.645C258.234 245.438 256.32 245.88 254.303 245.88 252.287 245.88 250.384 245.427 248.65 244.645L247.359 244.645C241.604 244.645 236.948 249.312 236.948 255.056L236.948 258.284C236.948 260.335 238.614 262 240.664 262L267.942 262C269.993 262 271.658 260.335 271.658 258.284L271.658 255.056C271.658 249.312 266.991 244.645 261.247 244.645ZM287.766 204 268.101 204C266.3 204 264.827 205.473 264.827 207.274L264.827 222.023C264.827 223.824 266.3 225.297 268.101 225.297L273.017 225.297 273.017 229.602C273.017 230.1 273.595 230.395 273.991 230.1L280.392 225.308 287.766 225.308C289.568 225.308 291.04 223.836 291.04 222.034L291.04 207.274C291.052 205.473 289.579 204 287.766 204ZM271.386 216.302C270.48 216.302 269.743 215.566 269.743 214.66 269.743 213.754 270.48 213.017 271.386 213.017 272.292 213.017 273.029 213.754 273.029 214.66 273.017 215.566 272.292 216.302 271.386 216.302ZM277.934 216.302C277.027 216.302 276.291 215.566 276.291 214.66 276.291 213.754 277.027 213.017 277.934 213.017 278.84 213.017 279.576 213.754 279.576 214.66 279.576 215.566 278.84 216.302 277.934 216.302ZM284.493 216.302C283.586 216.302 282.85 215.566 282.85 214.66 282.85 213.754 283.586 213.017 284.493 213.017 285.399 213.017 286.135 213.754 286.135 214.66 286.124 215.566 285.399 216.302 284.493 216.302Z"/></g></svg>