<svg width="43" height="43" xmlns="http://www.w3.org/2000/svg" xmlns:xlink="http://www.w3.org/1999/xlink" overflow="hidden"><defs><clipPath id="clip0"><rect x="259" y="108" width="43" height="43"/></clipPath></defs><g clip-path="url(#clip0)" transform="translate(-259 -108)"><path d="M263.787 122.731C264.14 122.832 264.526 122.664 264.677 122.328 267.415 116.314 273.479 112.124 280.5 112.124 284.279 112.124 287.79 113.341 290.645 115.399 290.939 115.609 291.351 115.575 291.603 115.315L293.425 113.493C293.744 113.173 293.711 112.636 293.341 112.367 289.663 109.596 285.195 108.092 280.5 108.092 274.781 108.092 269.406 110.318 265.366 114.358 263.426 116.298 261.897 118.548 260.839 121.001 260.663 121.412 260.881 121.891 261.318 122.017L263.787 122.731ZM283.146 147.321C283.053 146.969 282.717 146.734 282.348 146.776 281.735 146.843 281.121 146.876 280.492 146.876 270.909 146.876 263.115 139.083 263.115 129.5 263.115 128.879 263.149 128.265 263.216 127.661 263.258 127.3 263.023 126.964 262.679 126.871L260.201 126.166C259.764 126.04 259.311 126.334 259.252 126.796 259.143 127.686 259.084 128.585 259.084 129.5 259.084 135.219 261.31 140.594 265.349 144.634 269.389 148.674 274.764 150.899 280.483 150.899 281.39 150.899 282.289 150.84 283.171 150.731 283.624 150.672 283.918 150.236 283.801 149.791L283.146 147.321ZM296.465 116.524 294.643 118.347C294.383 118.607 294.349 119.01 294.559 119.313 296.642 122.177 297.868 125.696 297.868 129.5 297.868 136.513 293.694 142.568 287.697 145.306 287.362 145.457 287.185 145.827 287.278 146.188L287.949 148.674C288.067 149.11 288.546 149.346 288.966 149.169 293.828 147.07 297.91 143.147 300.354 137.747 300.362 137.73 300.371 137.714 300.379 137.688 303.209 130.147 301.975 122.403 297.582 116.608 297.314 116.239 296.785 116.205 296.465 116.524ZM291.477 126.157 291.485 133.078 287.11 134.606 287.101 126.174 285.64 125.662 285.648 135.11 281.273 136.639 281.256 124.142 280.525 123.89 279.795 124.142 279.803 136.647 275.427 135.127 275.419 125.679 273.958 126.191 273.966 134.623 269.582 133.095 269.574 126.174 271.035 125.662 271.043 132.053 272.505 132.565 272.496 125.158 276.872 123.629 276.88 134.094 278.342 134.598 278.333 123.109 280.525 122.345 282.717 123.109 282.726 134.598 284.187 134.086 284.179 123.621 288.562 125.15 288.571 132.557 290.032 132.045 290.024 125.654 291.477 126.157ZM292.333 132.733C292.611 132.733 292.837 132.507 292.837 132.229L292.837 132.229C292.837 131.952 292.619 131.726 292.333 131.726 292.056 131.726 291.829 131.952 291.829 132.229L291.829 132.229C291.838 132.507 292.056 132.733 292.333 132.733ZM292.333 132.683C292.081 132.683 291.888 132.481 291.888 132.238L291.888 132.238C291.888 131.994 292.081 131.784 292.333 131.784 292.585 131.784 292.779 131.986 292.779 132.229L292.779 132.229C292.779 132.473 292.585 132.683 292.333 132.683ZM292.132 132.481 292.258 132.481 292.258 132.313 292.342 132.313 292.451 132.481 292.602 132.481 292.468 132.297C292.535 132.271 292.585 132.221 292.585 132.137 292.585 132.02 292.493 131.961 292.375 131.961L292.132 131.961 292.132 132.481 292.132 132.481ZM292.258 132.213 292.258 132.07 292.367 132.07C292.426 132.07 292.459 132.095 292.459 132.146 292.459 132.188 292.426 132.221 292.367 132.221L292.258 132.213 292.258 132.213Z"/></g></svg>