<svg width="47" height="42" xmlns="http://www.w3.org/2000/svg" xmlns:xlink="http://www.w3.org/1999/xlink" overflow="hidden"><defs><clipPath id="clip0"><rect x="416" y="432" width="47" height="42"/></clipPath></defs><g clip-path="url(#clip0)" transform="translate(-416 -432)"><path d="M22.8774 12.0976 7.83333 24.4881 7.83333 37.8611C7.83333 38.5822 8.41781 39.1667 9.13889 39.1667L18.2827 39.143C19.0011 39.1394 19.5817 38.5559 19.5817 37.8374L19.5817 30.0278C19.5817 29.3067 20.1662 28.7222 20.8873 28.7222L26.1095 28.7222C26.8306 28.7222 27.415 29.3067 27.415 30.0278L27.415 37.8317C27.4128 38.5528 27.9954 39.1391 28.7165 39.1414 28.7179 39.1414 28.7192 39.1414 28.7206 39.1414L37.8611 39.1667C38.5822 39.1667 39.1667 38.5822 39.1667 37.8611L39.1667 24.4792 24.1259 12.0976C23.7615 11.8039 23.2417 11.8039 22.8774 12.0976ZM46.641 20.5193 25.9863 3.50868C24.5404 2.3189 22.4547 2.3189 21.0088 3.50868L0.354132 20.5193C-0.0626971 20.8638-0.121314 21.481 0.223208 21.8978 0.223331 21.8979 0.223453 21.8981 0.223576 21.8982L2.30431 24.4278C2.64781 24.8455 3.26485 24.9056 3.68252 24.5621 3.68305 24.5617 3.68358 24.5612 3.68411 24.5608L22.8774 8.75212C23.2417 8.45845 23.7615 8.45845 24.1259 8.75212L43.32 24.5608C43.7366 24.9055 44.3538 24.8473 44.6986 24.4306 44.6987 24.4305 44.6989 24.4304 44.699 24.4302L46.7797 21.9007C47.1231 21.4829 47.0627 20.8659 46.645 20.5225 46.6437 20.5215 46.6423 20.5203 46.641 20.5193Z" fill="#FFFFFF" transform="matrix(1 0 0 1.00532 416 432)"/></g></svg>