<svg width="34" height="46" xmlns="http://www.w3.org/2000/svg" xmlns:xlink="http://www.w3.org/1999/xlink" overflow="hidden"><defs><clipPath id="clip0"><rect x="91" y="214" width="34" height="46"/></clipPath></defs><g clip-path="url(#clip0)" transform="translate(-91 -214)"><path d="M8.59917 32.1079C7.82974 31.3384 8.23083 31.5554 6.375 31.0586 5.53297 30.8329 4.79276 30.399 4.12339 29.8793L0.10625 39.7286C-0.282448 40.6822 0.443594 41.7182 1.47245 41.6792L6.13771 41.5012 9.34646 44.8906C10.0548 45.6379 11.2979 45.4051 11.6866 44.4515L16.2952 33.1518C15.3354 33.6866 14.2703 34 13.1688 34 11.4422 34 9.82016 33.328 8.59917 32.1079ZM33.8937 39.7286 29.8766 29.8793C29.2072 30.3999 28.467 30.8329 27.625 31.0586 25.7594 31.558 26.1685 31.3402 25.4008 32.1079 24.1798 33.328 22.5569 34 20.8303 34 19.7289 34 18.6637 33.6857 17.7039 33.1518L22.3125 44.4515C22.7012 45.4051 23.9452 45.6379 24.6527 44.8906L27.8623 41.5012 32.5275 41.6792C33.5564 41.7182 34.2824 40.6814 33.8937 39.7286ZM23.2865 30.1042C24.6394 28.7273 24.7943 28.846 26.721 28.3209 27.9508 27.9854 28.9124 27.007 29.2418 25.755 29.9041 23.2404 29.7323 23.5441 31.5394 21.7042 32.4399 20.7878 32.7914 19.4517 32.462 18.1997 31.8006 15.6869 31.7997 16.0376 32.462 13.5221 32.7914 12.2701 32.4399 10.934 31.5394 10.0176 29.7323 8.17771 29.9041 8.48052 29.2418 5.96682 28.9124 4.71484 27.9508 3.73646 26.721 3.40089 24.2524 2.72708 24.5499 2.90328 22.741 1.0625 21.8406 0.146094 20.5275-0.2125 19.2977 0.123073 16.83 0.79599 17.1744 0.796875 14.7023 0.123073 13.4725-0.2125 12.1594 0.145208 11.259 1.0625 9.45182 2.9024 9.74932 2.72708 7.2799 3.40089 6.05005 3.73646 5.08849 4.71484 4.75911 5.96682 4.09771 8.48052 4.26859 8.17771 2.46146 10.0176 1.56099 10.934 1.20859 12.2701 1.53885 13.5221 2.20026 16.0331 2.20115 15.6825 1.53885 18.1989 1.20948 19.4508 1.56099 20.7869 2.46146 21.7042 4.26859 23.5441 4.09682 23.2404 4.75911 25.755 5.08849 27.007 6.05005 27.9854 7.2799 28.3209 9.26146 28.861 9.40932 28.776 10.7135 30.1042 11.8849 31.2968 13.7098 31.5102 15.1176 30.6195 16.2668 29.8899 17.7341 29.8899 18.8833 30.6195 20.2902 31.5102 22.1151 31.2968 23.2865 30.1042ZM8.64698 15.5798C8.64698 10.8844 12.387 7.07802 17 7.07802 21.613 7.07802 25.353 10.8844 25.353 15.5798 25.353 20.2752 21.613 24.0816 17 24.0816 12.387 24.0816 8.64698 20.2752 8.64698 15.5798Z" fill="#ED241C" transform="matrix(1 0 0 1.01471 91 214)"/></g></svg>